<?xml version="1.0" encoding="utf-8"?><svg viewBox="0 0 117 22" xmlns="http://www.w3.org/2000/svg" xmlns:xlink="http://www.w3.org/1999/xlink"><style>:root>svg{display:none}:root>svg:target{display:block}</style><svg viewBox="0 0 117 22" id="logo" xmlns="http://www.w3.org/2000/svg"><defs><style>.acls-1{fill:#151515;fill-rule:evenodd}</style></defs><path id="alogo_zonex" data-name="logo zonex" class="acls-1" d="M903 35h17l-10 17h9v4h-17l10-16h-9v-5zm32 21a10.955 10.955 0 01-10.817-12.949l5.726 5.09a6.007 6.007 0 10-.115-6.071l-3.822-3.345A11 11 0 11935 56zm17 0V46l5 3v7h-5zm0-16l19 16V34h-5v11l-14-11v6zm41-6h-15v22h15v-4h-10v-5h9v-4h-9v-5h10v-4zm26 22h-6l-5-6.875-5 6.875h-6l8-11-8-11h6l5 6.875 5-6.875h6l-8 11z" transform="translate(-902 -34)"/></svg></svg>